<svg xmlns="http://www.w3.org/2000/svg" xmlns:xlink="http://www.w3.org/1999/xlink" xmlns:svgjs="http://svgjs.com/svgjs" version="1.1" width="512" height="512" x="0" y="0" viewBox="0 0 25 25" style="enable-background:new 0 0 512 512;" xml:space="preserve" class=""><g><g xmlns="http://www.w3.org/2000/svg" id="Layer_47" data-name="Layer 47"><path d="m22.65 12-19.89-9a.53.53 0 0 0 -.55.09.5.5 0 0 0 -.13.54l3.26 8.87-3.26 8.83a.5.5 0 0 0 .13.54.55.55 0 0 0 .34.13.52.52 0 0 0 .21 0l19.89-9a.5.5 0 0 0 0-.92zm-19.22-7.55 16.7 7.55h-13.91zm2.79 8.55h13.91l-16.7 7.55z" fill="#0081ed" data-original="#000000" style="&#10;    fill: #ffffff;&#10;    /* background: pink; */&#10;" class=""/></g></g></svg>