<svg width="520" height="520" viewBox="0 0 520 520" fill="none" xmlns="http://www.w3.org/2000/svg">
<path d="M64.8891 259.556C64.9084 199.246 87.3236 141.092 127.788 96.3718C168.252 51.6514 223.882 23.551 283.889 17.5201C275.805 16.6748 267.684 16.2416 259.556 16.2223C195.02 16.2223 133.127 41.8591 87.4931 87.493C41.8592 133.127 16.2224 195.02 16.2224 259.556C16.2224 324.092 41.8592 385.984 87.4931 431.618C133.127 477.252 195.02 502.889 259.556 502.889C267.684 502.87 275.805 502.437 283.889 501.591C223.882 495.56 168.252 467.46 127.788 422.74C87.3236 378.019 64.9084 319.865 64.8891 259.556Z" fill="#FF7B24" fill-opacity="0.14"/>
<path d="M259.556 519.111C208.22 519.111 158.038 503.889 115.354 475.368C72.6706 446.848 39.4028 406.311 19.7576 358.883C0.112461 311.456 -5.0276 259.268 4.9874 208.919C15.0024 158.57 39.7227 112.322 76.0222 76.0222C112.322 39.7227 158.57 15.0024 208.919 4.9874C259.268 -5.0276 311.456 0.112461 358.883 19.7576C406.311 39.4028 446.848 72.6706 475.368 115.354C503.889 158.038 519.111 208.22 519.111 259.556C519.111 328.394 491.765 394.413 443.089 443.089C394.413 491.765 328.394 519.111 259.556 519.111V519.111ZM259.556 32.4446C214.637 32.4446 170.728 45.7644 133.38 70.7197C96.0313 95.675 66.9219 131.145 49.7324 172.644C32.5429 214.143 28.0453 259.808 36.8084 303.863C45.5716 347.918 67.2018 388.385 98.9639 420.148C130.726 451.91 171.193 473.54 215.249 482.303C259.304 491.066 304.968 486.569 346.467 469.379C387.967 452.19 423.436 423.08 448.392 385.732C473.347 348.384 486.667 304.474 486.667 259.556C486.667 199.322 462.739 141.555 420.148 98.9639C377.556 56.3723 319.789 32.4446 259.556 32.4446V32.4446Z" fill="#FF7B24"/>
<path d="M348.616 310.331C344.871 308.23 340.446 307.698 336.311 308.854C332.175 310.009 328.666 312.758 326.553 316.496C319.932 328.464 310.225 338.439 298.443 345.386C286.661 352.332 273.233 355.996 259.556 355.996C245.878 355.996 232.45 352.332 220.668 345.386C208.886 338.439 199.18 328.464 192.558 316.496C191.493 314.642 190.073 313.017 188.38 311.712C186.686 310.408 184.753 309.449 182.689 308.892C180.625 308.334 178.472 308.189 176.352 308.464C174.232 308.739 172.187 309.428 170.333 310.493C168.48 311.559 166.855 312.978 165.55 314.672C164.245 316.365 163.287 318.299 162.73 320.363C162.172 322.426 162.027 324.58 162.302 326.7C162.576 328.82 163.266 330.865 164.331 332.718C173.702 349.725 187.503 363.877 204.268 373.674C221.034 383.47 240.139 388.545 259.556 388.36V388.36C279.005 388.514 298.133 383.39 314.901 373.534C331.67 363.679 345.452 349.461 354.78 332.393C356.882 328.649 357.413 324.224 356.257 320.088C355.102 315.953 352.354 312.444 348.616 310.331V310.331Z" fill="#FF7B24"/>
<path d="M340.667 227.111C358.585 227.111 373.111 212.585 373.111 194.667C373.111 176.748 358.585 162.222 340.667 162.222C322.748 162.222 308.222 176.748 308.222 194.667C308.222 212.585 322.748 227.111 340.667 227.111Z" fill="#FF7B24"/>
<path d="M178.444 227.111C196.363 227.111 210.889 212.585 210.889 194.667C210.889 176.748 196.363 162.222 178.444 162.222C160.526 162.222 146 176.748 146 194.667C146 212.585 160.526 227.111 178.444 227.111Z" fill="#FF7B24"/>
</svg>
