<svg xmlns="http://www.w3.org/2000/svg" version="1.1" xmlns:xlink="http://www.w3.org/1999/xlink" xmlns:svgjs="http://svgjs.com/svgjs" width="512" height="512" x="0" y="0" viewBox="0 0 511.999 511.999" style="enable-background:new 0 0 512 512" xml:space="preserve" class=""><g><path xmlns="http://www.w3.org/2000/svg" d="m397.294 163.919c-3.409-3.314-8.192-4.821-12.876-4.05-4.691.767-8.742 3.712-10.918 7.938-7.484 14.539-16.99 27.9-28.175 39.711 1.115-8.531 1.676-17.115 1.676-25.721 0-16.514-2.213-33.508-6.58-50.513-14.358-55.86-52.006-103.102-103.292-129.61-4.462-2.308-9.785-2.225-14.179.216-4.392 2.443-7.269 6.922-7.663 11.932-3.998 50.764-30.147 96.949-71.779 126.741-.552.397-1.099.799-1.646 1.199-1.132.83-2.201 1.613-3.198 2.271-.156.104-.311.21-.464.319-26.184 18.747-47.789 43.737-62.481 72.276-14.93 29.029-22.5 60.18-22.5 92.585 0 16.508 2.213 33.501 6.578 50.511 23.035 89.657 103.719 152.274 196.208 152.274 111.811 0 202.775-90.969 202.775-202.785 0-55.14-21.836-106.74-61.486-145.294zm-141.289 318.08c-78.79 0-147.525-53.351-167.15-129.735-3.739-14.571-5.636-29.056-5.636-43.05 0-27.587 6.452-54.12 19.175-78.858 12.481-24.243 30.825-45.489 53.062-61.46 1.508-1.007 2.902-2.029 4.142-2.937.479-.352.96-.704 1.407-1.026 42.359-30.313 71.068-75.151 80.985-125.437 34.137 23.506 58.957 58.718 69.376 99.254 3.739 14.565 5.636 29.049 5.636 43.048 0 20.498-3.757 40.893-11.167 60.616-2.266 6.031-.427 12.836 4.568 16.905 4.996 4.067 12.03 4.492 17.479 1.055 24.749-15.619 45.784-36.348 61.688-60.638 25.411 30.815 39.21 69.031 39.21 109.478 0 95.274-77.507 172.785-172.775 172.785z" fill="#ff7b24" data-original="#000000" style="" class=""></path></g></svg>