<svg xmlns="http://www.w3.org/2000/svg" version="1.1" xmlns:xlink="http://www.w3.org/1999/xlink" xmlns:svgjs="http://svgjs.com/svgjs" width="512" height="512" x="0" y="0" viewBox="0 0 512 512" style="enable-background:new 0 0 512 512" xml:space="preserve" class=""><g><path xmlns="http://www.w3.org/2000/svg" d="m492 279c11.046 0 20-8.954 20-20v-74c0-38.598-31.402-70-70-70h-10v-10c0-38.598-31.402-70-70-70h-293c-38.047 0-69 30.953-69 69v223c0 38.598 31.402 70 70 70h10v10c0 38.598 31.402 70 70 70h292.169c38.505 0 69.831-31.325 69.831-69.836l-.014-45.7c-.001-4.741-1.687-9.327-4.755-12.94l-94.664-111.47c-3.813-4.49-9.364-7.062-15.3-7.054-5.89.017-11.473 2.628-15.261 7.139l-90.816 108.148-42.675-51.979c-3.754-4.572-9.341-7.248-15.257-7.308-5.939-.044-11.556 2.505-15.401 7.001l-97.854 114.441c-.002-.147-.003-.294-.003-.442v-223c0-15.99 13.009-29 29-29h293c16.542 0 30 13.458 30 30v74c0 11.046 8.954 20 20 20zm-259.254 58.14 42.813 52.146c3.774 4.597 9.399 7.275 15.347 7.309 5.948-.005 11.602-2.584 15.427-7.139l91.075-108.458 74.58 87.82.012 38.352c0 16.448-13.382 29.83-29.831 29.83h-292.169c-.858 0-1.709-.036-2.549-.107zm-152.746-153.14v173h-10c-16.542 0-30-13.458-30-30v-223c0-15.99 13.009-29 29-29h293c16.542 0 30 13.458 30 30v10h-243c-38.047 0-69 30.953-69 69zm124 14c13.807 0 25 11.193 25 25s-11.193 25-25 25-25-11.193-25-25 11.193-25 25-25z" fill="#0081ed" data-original="#000000" style="" class=""></path></g></svg>